<?xml version="1.0" standalone="no"?>
<!DOCTYPE svg PUBLIC "-//W3C//DTD SVG 20010904//EN"
 "http://www.w3.org/TR/2001/REC-SVG-20010904/DTD/svg10.dtd">
<svg version="1.0" xmlns="http://www.w3.org/2000/svg"
 width="225.000000pt" height="225.000000pt" viewBox="0 0 225.000000 225.000000"
 preserveAspectRatio="xMidYMid meet">
<metadata>
Created by potrace 1.14, written by Peter Selinger 2001-2017
</metadata>
<g transform="translate(0.000000,225.000000) scale(0.100000,-0.100000)"
fill="#000000" stroke="none">
<path d="M815 2003 c-87 -6 -194 -27 -280 -55 -238 -77 -388 -241 -477 -518
-32 -102 -33 -110 -33 -275 0 -184 4 -210 61 -360 99 -265 321 -455 606 -520
40 -9 127 -20 193 -24 217 -14 384 16 545 96 172 86 302 243 356 433 13 46 18
99 19 185 0 106 -3 130 -29 209 -36 110 -84 182 -183 277 -126 120 -230 179
-338 193 -80 10 -81 1 -9 -104 86 -124 158 -274 185 -380 38 -148 17 -341 -51
-488 -37 -80 -114 -161 -186 -196 -127 -62 -408 -50 -553 23 -134 69 -217 208
-246 415 -55 384 60 629 350 747 l80 32 245 8 c135 4 371 8 526 8 296 1 335 6
428 53 58 29 133 104 172 171 19 33 33 61 32 63 -4 3 -1359 10 -1413 7z"/>
</g>
</svg>
